<svg xmlns="http://www.w3.org/2000/svg" viewBox="0 0 1600 1000" width="1600" height="1000" role="img">
<title>Placeholder for the project thumbnail</title>
<rect width="1600" height="1000" fill="#ffffff"/>
<rect x="0" y="0" width="1600" height="44" fill="#eef1f5"/>
<rect x="0" y="44" width="1600" height="52" fill="#e3e8ef"/>
<line x1="0" y1="0" x2="0" y2="1000" stroke="#d5dbe4"/>
<line x1="80" y1="0" x2="80" y2="1000" stroke="#d5dbe4"/>
<rect x="96" y="60" width="140" height="16" rx="3" fill="#7a8599"/>
<line x1="360" y1="0" x2="360" y2="1000" stroke="#d5dbe4"/>
<rect x="376" y="60" width="130" height="16" rx="3" fill="#7a8599"/>
<line x1="620" y1="0" x2="620" y2="1000" stroke="#d5dbe4"/>
<rect x="636" y="60" width="165" height="16" rx="3" fill="#7a8599"/>
<line x1="950" y1="0" x2="950" y2="1000" stroke="#d5dbe4"/>
<rect x="966" y="60" width="100" height="16" rx="3" fill="#7a8599"/>
<line x1="1150" y1="0" x2="1150" y2="1000" stroke="#d5dbe4"/>
<rect x="1166" y="60" width="100" height="16" rx="3" fill="#7a8599"/>
<line x1="1350" y1="0" x2="1350" y2="1000" stroke="#d5dbe4"/>
<rect x="1366" y="60" width="125" height="16" rx="3" fill="#7a8599"/>
<line x1="0" y1="96" x2="1600" y2="96" stroke="#e1e6ee"/>
<rect x="28" y="118" width="24" height="12" rx="3" fill="#c3cad6"/>
<rect x="96" y="116" width="173" height="16" rx="3" fill="#aeb7c6"/>
<rect x="376" y="116" width="161" height="16" rx="3" fill="#aeb7c6"/>
<rect x="636" y="116" width="204" height="16" rx="3" fill="#aeb7c6"/>
<rect x="966" y="116" width="124" height="16" rx="3" fill="#aeb7c6"/>
<rect x="1166" y="116" width="124" height="16" rx="3" fill="#aeb7c6"/>
<rect x="1366" y="112" width="120" height="26" rx="13" fill="#f6d3ae"/>
<line x1="0" y1="154" x2="1600" y2="154" stroke="#e1e6ee"/>
<rect x="28" y="176" width="24" height="12" rx="3" fill="#c3cad6"/>
<rect x="96" y="174" width="173" height="16" rx="3" fill="#aeb7c6"/>
<rect x="376" y="174" width="161" height="16" rx="3" fill="#aeb7c6"/>
<rect x="636" y="174" width="204" height="16" rx="3" fill="#aeb7c6"/>
<rect x="966" y="174" width="124" height="16" rx="3" fill="#aeb7c6"/>
<rect x="1166" y="174" width="124" height="16" rx="3" fill="#aeb7c6"/>
<rect x="1366" y="170" width="120" height="26" rx="13" fill="#f6d3ae"/>
<line x1="0" y1="212" x2="1600" y2="212" stroke="#e1e6ee"/>
<rect x="28" y="234" width="24" height="12" rx="3" fill="#c3cad6"/>
<rect x="96" y="232" width="173" height="16" rx="3" fill="#aeb7c6"/>
<rect x="376" y="232" width="161" height="16" rx="3" fill="#aeb7c6"/>
<rect x="636" y="232" width="204" height="16" rx="3" fill="#aeb7c6"/>
<rect x="966" y="232" width="124" height="16" rx="3" fill="#aeb7c6"/>
<rect x="1166" y="232" width="124" height="16" rx="3" fill="#aeb7c6"/>
<rect x="1366" y="228" width="120" height="26" rx="13" fill="#bfe6d1"/>
<line x1="0" y1="270" x2="1600" y2="270" stroke="#e1e6ee"/>
<rect x="28" y="292" width="24" height="12" rx="3" fill="#c3cad6"/>
<rect x="96" y="290" width="173" height="16" rx="3" fill="#aeb7c6"/>
<rect x="376" y="290" width="161" height="16" rx="3" fill="#aeb7c6"/>
<rect x="636" y="290" width="204" height="16" rx="3" fill="#aeb7c6"/>
<rect x="966" y="290" width="124" height="16" rx="3" fill="#aeb7c6"/>
<rect x="1166" y="290" width="124" height="16" rx="3" fill="#aeb7c6"/>
<rect x="1366" y="286" width="120" height="26" rx="13" fill="#f6d3ae"/>
<line x1="0" y1="328" x2="1600" y2="328" stroke="#e1e6ee"/>
<rect x="28" y="350" width="24" height="12" rx="3" fill="#c3cad6"/>
<rect x="96" y="348" width="173" height="16" rx="3" fill="#aeb7c6"/>
<rect x="376" y="348" width="161" height="16" rx="3" fill="#aeb7c6"/>
<rect x="636" y="348" width="204" height="16" rx="3" fill="#aeb7c6"/>
<rect x="966" y="348" width="124" height="16" rx="3" fill="#aeb7c6"/>
<rect x="1166" y="348" width="124" height="16" rx="3" fill="#aeb7c6"/>
<rect x="1366" y="344" width="120" height="26" rx="13" fill="#f6d3ae"/>
<line x1="0" y1="386" x2="1600" y2="386" stroke="#e1e6ee"/>
<rect x="28" y="408" width="24" height="12" rx="3" fill="#c3cad6"/>
<rect x="96" y="406" width="173" height="16" rx="3" fill="#aeb7c6"/>
<rect x="376" y="406" width="161" height="16" rx="3" fill="#aeb7c6"/>
<rect x="636" y="406" width="204" height="16" rx="3" fill="#aeb7c6"/>
<rect x="966" y="406" width="124" height="16" rx="3" fill="#aeb7c6"/>
<rect x="1166" y="406" width="124" height="16" rx="3" fill="#aeb7c6"/>
<rect x="1366" y="402" width="120" height="26" rx="13" fill="#bfe6d1"/>
<line x1="0" y1="444" x2="1600" y2="444" stroke="#e1e6ee"/>
<rect x="28" y="466" width="24" height="12" rx="3" fill="#c3cad6"/>
<rect x="96" y="464" width="173" height="16" rx="3" fill="#aeb7c6"/>
<rect x="376" y="464" width="161" height="16" rx="3" fill="#aeb7c6"/>
<rect x="636" y="464" width="204" height="16" rx="3" fill="#aeb7c6"/>
<rect x="966" y="464" width="124" height="16" rx="3" fill="#aeb7c6"/>
<rect x="1166" y="464" width="124" height="16" rx="3" fill="#aeb7c6"/>
<rect x="1366" y="460" width="120" height="26" rx="13" fill="#bfe6d1"/>
<line x1="0" y1="502" x2="1600" y2="502" stroke="#e1e6ee"/>
<rect x="28" y="524" width="24" height="12" rx="3" fill="#c3cad6"/>
<rect x="96" y="522" width="173" height="16" rx="3" fill="#aeb7c6"/>
<rect x="376" y="522" width="161" height="16" rx="3" fill="#aeb7c6"/>
<rect x="636" y="522" width="204" height="16" rx="3" fill="#aeb7c6"/>
<rect x="966" y="522" width="124" height="16" rx="3" fill="#aeb7c6"/>
<rect x="1166" y="522" width="124" height="16" rx="3" fill="#aeb7c6"/>
<rect x="1366" y="518" width="120" height="26" rx="13" fill="#bfe6d1"/>
<line x1="0" y1="560" x2="1600" y2="560" stroke="#e1e6ee"/>
<rect x="28" y="582" width="24" height="12" rx="3" fill="#c3cad6"/>
<rect x="96" y="580" width="173" height="16" rx="3" fill="#aeb7c6"/>
<rect x="376" y="580" width="161" height="16" rx="3" fill="#aeb7c6"/>
<rect x="636" y="580" width="204" height="16" rx="3" fill="#aeb7c6"/>
<rect x="966" y="580" width="124" height="16" rx="3" fill="#aeb7c6"/>
<rect x="1166" y="580" width="124" height="16" rx="3" fill="#aeb7c6"/>
<rect x="1366" y="576" width="120" height="26" rx="13" fill="#bfe6d1"/>
<line x1="0" y1="618" x2="1600" y2="618" stroke="#e1e6ee"/>
<rect x="28" y="640" width="24" height="12" rx="3" fill="#c3cad6"/>
<rect x="96" y="638" width="173" height="16" rx="3" fill="#aeb7c6"/>
<rect x="376" y="638" width="161" height="16" rx="3" fill="#aeb7c6"/>
<rect x="636" y="638" width="204" height="16" rx="3" fill="#aeb7c6"/>
<rect x="966" y="638" width="124" height="16" rx="3" fill="#aeb7c6"/>
<rect x="1166" y="638" width="124" height="16" rx="3" fill="#aeb7c6"/>
<rect x="1366" y="634" width="120" height="26" rx="13" fill="#f6d3ae"/>
<line x1="0" y1="676" x2="1600" y2="676" stroke="#e1e6ee"/>
<rect x="28" y="698" width="24" height="12" rx="3" fill="#c3cad6"/>
<rect x="96" y="696" width="173" height="16" rx="3" fill="#aeb7c6"/>
<rect x="376" y="696" width="161" height="16" rx="3" fill="#aeb7c6"/>
<rect x="636" y="696" width="204" height="16" rx="3" fill="#aeb7c6"/>
<rect x="966" y="696" width="124" height="16" rx="3" fill="#aeb7c6"/>
<rect x="1166" y="696" width="124" height="16" rx="3" fill="#aeb7c6"/>
<rect x="1366" y="692" width="120" height="26" rx="13" fill="#bfe6d1"/>
<line x1="0" y1="734" x2="1600" y2="734" stroke="#e1e6ee"/>
<rect x="28" y="756" width="24" height="12" rx="3" fill="#c3cad6"/>
<rect x="96" y="754" width="173" height="16" rx="3" fill="#aeb7c6"/>
<rect x="376" y="754" width="161" height="16" rx="3" fill="#aeb7c6"/>
<rect x="636" y="754" width="204" height="16" rx="3" fill="#aeb7c6"/>
<rect x="966" y="754" width="124" height="16" rx="3" fill="#aeb7c6"/>
<rect x="1166" y="754" width="124" height="16" rx="3" fill="#aeb7c6"/>
<rect x="1366" y="750" width="120" height="26" rx="13" fill="#bfe6d1"/>
<line x1="0" y1="792" x2="1600" y2="792" stroke="#e1e6ee"/>
<rect x="28" y="814" width="24" height="12" rx="3" fill="#c3cad6"/>
<rect x="96" y="812" width="173" height="16" rx="3" fill="#aeb7c6"/>
<rect x="376" y="812" width="161" height="16" rx="3" fill="#aeb7c6"/>
<rect x="636" y="812" width="204" height="16" rx="3" fill="#aeb7c6"/>
<rect x="966" y="812" width="124" height="16" rx="3" fill="#aeb7c6"/>
<rect x="1166" y="812" width="124" height="16" rx="3" fill="#aeb7c6"/>
<rect x="1366" y="808" width="120" height="26" rx="13" fill="#bfe6d1"/>
<line x1="0" y1="850" x2="1600" y2="850" stroke="#e1e6ee"/>
<rect x="28" y="872" width="24" height="12" rx="3" fill="#c3cad6"/>
<rect x="96" y="870" width="173" height="16" rx="3" fill="#aeb7c6"/>
<rect x="376" y="870" width="161" height="16" rx="3" fill="#aeb7c6"/>
<rect x="636" y="870" width="204" height="16" rx="3" fill="#aeb7c6"/>
<rect x="966" y="870" width="124" height="16" rx="3" fill="#aeb7c6"/>
<rect x="1166" y="870" width="124" height="16" rx="3" fill="#aeb7c6"/>
<rect x="1366" y="866" width="120" height="26" rx="13" fill="#bfe6d1"/>
<line x1="0" y1="908" x2="1600" y2="908" stroke="#e1e6ee"/>
<rect x="28" y="930" width="24" height="12" rx="3" fill="#c3cad6"/>
<rect x="96" y="928" width="173" height="16" rx="3" fill="#aeb7c6"/>
<rect x="376" y="928" width="161" height="16" rx="3" fill="#aeb7c6"/>
<rect x="636" y="928" width="204" height="16" rx="3" fill="#aeb7c6"/>
<rect x="966" y="928" width="124" height="16" rx="3" fill="#aeb7c6"/>
<rect x="1166" y="928" width="124" height="16" rx="3" fill="#aeb7c6"/>
<rect x="1366" y="924" width="120" height="26" rx="13" fill="#bfe6d1"/>
<text x="1576" y="980" text-anchor="end" font-family="Arial,sans-serif" font-size="20" fill="#8a94a6">Placeholder image. Replace with your real screenshot.</text>
</svg>